<?xml version="1.0" encoding="utf-8"?>
<!-- Generator: Adobe Illustrator 28.1.0, SVG Export Plug-In . SVG Version: 6.00 Build 0)  -->
<svg version="1.1" id="Layer_1" xmlns="http://www.w3.org/2000/svg" xmlns:xlink="http://www.w3.org/1999/xlink" x="0px" y="0px"
	 viewBox="0 0 483.9 379.5" style="enable-background:new 0 0 483.9 379.5;" xml:space="preserve">
<style type="text/css">
	.st0{fill-rule:evenodd;clip-rule:evenodd;fill:url(#SVGID_1_);}
	.st1{fill-rule:evenodd;clip-rule:evenodd;fill:url(#SVGID_00000164491309935240382940000005024561777199275965_);}
	.st2{fill-rule:evenodd;clip-rule:evenodd;fill:url(#SVGID_00000002344432669623470660000005389357723197841035_);}
	.st3{fill-rule:evenodd;clip-rule:evenodd;fill:url(#SVGID_00000181078907852849715210000017538900339752594096_);}
	.st4{fill-rule:evenodd;clip-rule:evenodd;fill:url(#SVGID_00000140697601014986404620000012791882153299155342_);}
	.st5{fill-rule:evenodd;clip-rule:evenodd;fill:url(#SVGID_00000080200689323121660990000010950310521136591772_);}
	.st6{fill-rule:evenodd;clip-rule:evenodd;fill:url(#SVGID_00000142136780442073639590000012875193729526966402_);}
	.st7{fill-rule:evenodd;clip-rule:evenodd;fill:url(#SVGID_00000052790860743887487150000015909455227594407316_);}
	.st8{fill-rule:evenodd;clip-rule:evenodd;fill:url(#SVGID_00000177461353378382250160000016449706073604315789_);}
	.st9{fill-rule:evenodd;clip-rule:evenodd;fill:url(#SVGID_00000104682207063527909960000014737975874389002145_);}
	.st10{fill-rule:evenodd;clip-rule:evenodd;fill:url(#SVGID_00000183226016677817891780000008500562839880863383_);}
	.st11{fill-rule:evenodd;clip-rule:evenodd;fill:url(#SVGID_00000125591341039955920060000014606698542945685932_);}
	.st12{fill-rule:evenodd;clip-rule:evenodd;fill:url(#SVGID_00000109746305773966530430000000065828806160624268_);}
	.st13{fill-rule:evenodd;clip-rule:evenodd;fill:url(#SVGID_00000032618348815276757770000012416369433541654183_);}
	.st14{fill-rule:evenodd;clip-rule:evenodd;fill:url(#SVGID_00000163052547402025452820000004696162937908337285_);}
	
		.st15{opacity:0.3;fill-rule:evenodd;clip-rule:evenodd;fill:url(#SVGID_00000113323959561519854280000012657802786888788880_);enable-background:new    ;}
	.st16{fill-rule:evenodd;clip-rule:evenodd;fill:url(#SVGID_00000137854661441311712950000005414052703799473040_);}
	.st17{fill-rule:evenodd;clip-rule:evenodd;fill:url(#SVGID_00000054254918258122212570000011083534383441019827_);}
</style>
<g>
	
		<linearGradient id="SVGID_1_" gradientUnits="userSpaceOnUse" x1="105.3083" y1="-265.9839" x2="300.8607" y2="-265.9839" gradientTransform="matrix(1 0 0 -1 0 -28)">
		<stop  offset="0" style="stop-color:#55458B"/>
		<stop  offset="1" style="stop-color:#00ACB7"/>
	</linearGradient>
	<path class="st0" d="M256.9,190.9c-2.9-22.6-8.9-61-30.2-63.4c-7.8,0.4-15.1,6.7-20.7,18.2l-57.5,119.8
		c7.8,19.9,31.7,60.6,54.5,36.5l14.6-23.2c9.9-15.8,19.3-11.7,26.7,2.2l29.9,57c2.2,4.2,4.9,7.8,7.8,10.4
		c-6.3-12.5-6.9-22.8-8.9-37.5C271.2,298,264.8,252.4,256.9,190.9L256.9,190.9L256.9,190.9z"/>
	
		<linearGradient id="SVGID_00000050640875092755579190000011441415997876009604_" gradientUnits="userSpaceOnUse" x1="299.514" y1="-131.4763" x2="299.514" y2="-470.5076" gradientTransform="matrix(1 0 0 -1 0 -28)">
		<stop  offset="0" style="stop-color:#B79DAC"/>
		<stop  offset="0.49" style="stop-color:#7E5193"/>
		<stop  offset="1" style="stop-color:#7E4D9F"/>
	</linearGradient>
	<path style="fill-rule:evenodd;clip-rule:evenodd;fill:url(#SVGID_00000050640875092755579190000011441415997876009604_);" d="
		M226.8,127.5c15.8,1.9,24.6,41.4,27.5,63.9c7.9,61.6,14.6,107.4,16.1,120.5c1.9,14.7,2.4,25.4,11.3,36.8
		c15.7,15.1,39,8.5,50.4-14.7l40.2-82.5c-22.4,24.9-57,7.6-74.8-23.1l-48.9-84.8C242.2,132.4,234.4,127.1,226.8,127.5L226.8,127.5
		L226.8,127.5z"/>
	
		<linearGradient id="SVGID_00000178920489624213912080000012459596994226210990_" gradientUnits="userSpaceOnUse" x1="134.6241" y1="-417.9943" x2="134.6241" y2="-178.1877" gradientTransform="matrix(1 0 0 -1 0 -28)">
		<stop  offset="0" style="stop-color:#3C98D4"/>
		<stop  offset="0.48" style="stop-color:#4DC0B3"/>
		<stop  offset="1" style="stop-color:#8FD0B6"/>
	</linearGradient>
	<path style="fill-rule:evenodd;clip-rule:evenodd;fill:url(#SVGID_00000178920489624213912080000012459596994226210990_);" d="
		M167,291.1l-18.5-25.4L101,200.5c-18.3-25.3-45.4-12.6-30.4,17.5L126,331.6c14,28.8,37.7,33.8,55.9,4.6l21.1-33.9
		C191.3,310.9,177.7,305.5,167,291.1L167,291.1L167,291.1z"/>
	
		<linearGradient id="SVGID_00000160911610223567857290000016655512670747014073_" gradientUnits="userSpaceOnUse" x1="143.543" y1="-427.751" x2="143.543" y2="-219.3034" gradientTransform="matrix(1 0 0 -1 0 -28)">
		<stop  offset="0" style="stop-color:#3C98D4"/>
		<stop  offset="0.48" style="stop-color:#4DC0B3"/>
		<stop  offset="1" style="stop-color:#8FD0B6"/>
	</linearGradient>
	<path style="fill-rule:evenodd;clip-rule:evenodd;fill:url(#SVGID_00000160911610223567857290000016655512670747014073_);" d="
		M99.1,201.2l63.6,93.5c10.7,14.6,28.2,21.8,40.3,7.5c-11.5,8.9-25.3,3.5-35.8-11.1l-18.6-25.4l-47.4-65.2
		c-5.4-7.5-11.5-11.5-17.1-13.1C89.6,188.7,93.7,193.8,99.1,201.2L99.1,201.2L99.1,201.2z"/>
	
		<linearGradient id="SVGID_00000088811832632836542220000013401258042456657579_" gradientUnits="userSpaceOnUse" x1="135.3007" y1="-392.5448" x2="135.3007" y2="-147.5011" gradientTransform="matrix(1 0 0 -1 0 -28)">
		<stop  offset="0" style="stop-color:#3C98D4"/>
		<stop  offset="0.48" style="stop-color:#4DC0B3"/>
		<stop  offset="1" style="stop-color:#8FD0B6"/>
	</linearGradient>
	<path style="fill-rule:evenodd;clip-rule:evenodd;fill:url(#SVGID_00000088811832632836542220000013401258042456657579_);" d="
		M149,300.7c-6-8.8-22.6-33.1-49.9-72.9c-11.8-17.4-26.4-7.5-19.9,8.2l46.7,95.6c14,28.8,37.7,33.8,55.9,4.6L193,318
		C181.1,328.6,162.4,320.5,149,300.7L149,300.7z"/>
	
		<linearGradient id="SVGID_00000183932744888232122530000009045805541870298769_" gradientUnits="userSpaceOnUse" x1="148.6841" y1="-305.4718" x2="335.5203" y2="-305.4718" gradientTransform="matrix(1 0 0 -1 0 -28)">
		<stop  offset="0" style="stop-color:#55458B"/>
		<stop  offset="1" style="stop-color:#00ACB7"/>
	</linearGradient>
	<path style="fill-rule:evenodd;clip-rule:evenodd;fill:url(#SVGID_00000183932744888232122530000009045805541870298769_);" d="
		M203,302.2c-14.7,2.9-30.2-14.9-46.1-53.6l-8.2,17.1l18.6,25.4C177.7,305.5,191.3,310.9,203,302.2L203,302.2L203,302.2z"/>
	
		<linearGradient id="SVGID_00000147187196453219879630000016424320785085084853_" gradientUnits="userSpaceOnUse" x1="140.3439" y1="-266.1229" x2="327.1801" y2="-266.1229" gradientTransform="matrix(1 0 0 -1 0 -28)">
		<stop  offset="0" style="stop-color:#55458B"/>
		<stop  offset="1" style="stop-color:#00ACB7"/>
	</linearGradient>
	<path style="fill-rule:evenodd;clip-rule:evenodd;fill:url(#SVGID_00000147187196453219879630000016424320785085084853_);" d="
		M244.1,192l6.7,101.7l23.3,44.6c2.2,4.2,4.9,7.8,7.8,10.4c-9-11.3-9.3-22.1-11.3-36.8c-1.7-13.1-8.2-58.9-16.1-120.5
		c-2.9-22.6-11.7-62.1-27.5-63.9C241.1,131.8,242.9,175.5,244.1,192L244.1,192L244.1,192z"/>
	
		<linearGradient id="SVGID_00000165927172051570522050000011243404793971604114_" gradientUnits="userSpaceOnUse" x1="268.4587" y1="-175.2195" x2="268.4587" y2="-514.2506" gradientTransform="matrix(1 0 0 -1 0 -28)">
		<stop  offset="0" style="stop-color:#B79DAC"/>
		<stop  offset="0.49" style="stop-color:#7E5193"/>
		<stop  offset="1" style="stop-color:#7E4D9F"/>
	</linearGradient>
	<path style="fill-rule:evenodd;clip-rule:evenodd;fill:url(#SVGID_00000165927172051570522050000011243404793971604114_);" d="
		M274.3,307.6c-2.2-15.8-10-58.8-17.5-116.6c-2.9-22.6-11.8-62.4-30.2-63.4c15.8,1.9,24.6,41.4,27.5,63.9
		c7.9,61.6,14.6,107.4,16.1,120.5c1.9,14.7,2.4,25.4,11.3,36.8c8.5,8.1,18.9,10,28.8,6.4c-11.8,3.2-20.1-2.4-26.5-10.1
		C277.2,336.8,276.1,319.5,274.3,307.6L274.3,307.6L274.3,307.6z"/>
	
		<linearGradient id="SVGID_00000116919078962437388430000005810093194781189791_" gradientUnits="userSpaceOnUse" x1="311.8805" y1="-81.2858" x2="311.8805" y2="-420.3169" gradientTransform="matrix(1 0 0 -1 0 -28)">
		<stop  offset="0" style="stop-color:#B79DAC"/>
		<stop  offset="0.49" style="stop-color:#7E5193"/>
		<stop  offset="1" style="stop-color:#7E4D9F"/>
	</linearGradient>
	<path style="fill-rule:evenodd;clip-rule:evenodd;fill:url(#SVGID_00000116919078962437388430000005810093194781189791_);" d="
		M294.4,267.7c13.2,39.6,45.9,44.9,62.9,14.3l14.9-30.7c-22.4,24.9-57,7.6-74.8-23.1l-46-79.9C259.8,167.3,274.2,207,294.4,267.7
		L294.4,267.7L294.4,267.7z"/>
	
		<linearGradient id="SVGID_00000036213133116412883760000006928897199283761570_" gradientUnits="userSpaceOnUse" x1="338.2243" y1="-56.1861" x2="338.2243" y2="-321.1013" gradientTransform="matrix(1 0 0 -1 0 -28)">
		<stop  offset="0" style="stop-color:#5D3C7D"/>
		<stop  offset="0.49" style="stop-color:#CD4097"/>
		<stop  offset="1" style="stop-color:#E33E5F"/>
	</linearGradient>
	<path style="fill-rule:evenodd;clip-rule:evenodd;fill:url(#SVGID_00000036213133116412883760000006928897199283761570_);" d="
		M376.1,236.3c16.8-23.6,7.8-64.6-2.6-92.8c-17-45.7-24.5-80-17.5-101.4c-1.5,2.6-3.1,5.6-4.3,8.8L291,197l15.3,26.4
		C327,259.4,354.9,260.6,376.1,236.3L376.1,236.3L376.1,236.3z"/>
	
		<linearGradient id="SVGID_00000137091642128189658570000014390701864957960832_" gradientUnits="userSpaceOnUse" x1="403.1288" y1="-4.6054" x2="403.1288" y2="-307.8924" gradientTransform="matrix(1 0 0 -1 0 -28)">
		<stop  offset="0" style="stop-color:#C7C678"/>
		<stop  offset="0.52" style="stop-color:#DB6DAA"/>
		<stop  offset="1" style="stop-color:#775091"/>
	</linearGradient>
	<path style="fill-rule:evenodd;clip-rule:evenodd;fill:url(#SVGID_00000137091642128189658570000014390701864957960832_);" d="
		M369.1,144.7c11,28.1,22.4,67.1,7.1,91.6c5-5.7,9.7-13.1,13.9-21.5l59.1-121.2c30.6-62.9-59.9-107.5-93.1-51.6
		C346,61.4,351.1,98.3,369.1,144.7L369.1,144.7L369.1,144.7z"/>
	
		<linearGradient id="SVGID_00000127022211311342152370000018197094077426411143_" gradientUnits="userSpaceOnUse" x1="330.7082" y1="-93.1407" x2="330.7082" y2="-358.0471" gradientTransform="matrix(1 0 0 -1 0 -28)">
		<stop  offset="0" style="stop-color:#5D3C7D"/>
		<stop  offset="0.49" style="stop-color:#CD4097"/>
		<stop  offset="1" style="stop-color:#E33E5F"/>
	</linearGradient>
	<path style="fill-rule:evenodd;clip-rule:evenodd;fill:url(#SVGID_00000127022211311342152370000018197094077426411143_);" d="
		M370.6,242c-25.4,15-57.1-28.8-61.1-89.6L290.8,197l15.3,26.4C325,256.3,350,260.1,370.6,242L370.6,242L370.6,242z"/>
	
		<linearGradient id="SVGID_00000058589068079486612470000009279711564214157455_" gradientUnits="userSpaceOnUse" x1="359.8922" y1="-94.5306" x2="359.8922" y2="-359.4461" gradientTransform="matrix(1 0 0 -1 0 -28)">
		<stop  offset="0" style="stop-color:#5D3C7D"/>
		<stop  offset="0.49" style="stop-color:#CD4097"/>
		<stop  offset="1" style="stop-color:#E33E5F"/>
	</linearGradient>
	<path style="fill-rule:evenodd;clip-rule:evenodd;fill:url(#SVGID_00000058589068079486612470000009279711564214157455_);" d="
		M336.3,87.6c13.3,54.9,57.2,105.6,39.9,148.5c15.3-24.5,3.8-63.5-7.1-91.6C351.1,98.3,346,61.4,355.9,41.9
		c-1.5,2.6-3.1,5.6-4.3,8.8L336.3,87.6L336.3,87.6z"/>
	
		<linearGradient id="SVGID_00000098918656266280118660000016521357699099675303_" gradientUnits="userSpaceOnUse" x1="385.8992" y1="-45.0305" x2="385.8992" y2="-348.3175" gradientTransform="matrix(1 0 0 -1 0 -28)">
		<stop  offset="0" style="stop-color:#C7C678"/>
		<stop  offset="0.52" style="stop-color:#DB6DAA"/>
		<stop  offset="1" style="stop-color:#775091"/>
	</linearGradient>
	<path style="fill-rule:evenodd;clip-rule:evenodd;fill:url(#SVGID_00000098918656266280118660000016521357699099675303_);" d="
		M357.7,64.4c1.1-33.3,33.2-54.9,63.2-43.8c-22.1-8.9-49.7-4.4-65,21.4c-9.9,19.3-4.7,56.3,13.2,102.7c11,28.1,22.4,67.1,7.1,91.6
		c18.1-22.4,8.2-64.8-2.6-92.8C365,121.4,357,90.3,357.7,64.4L357.7,64.4z"/>
	
		<linearGradient id="SVGID_00000124874557792109540650000003218222737536346770_" gradientUnits="userSpaceOnUse" x1="420.1467" y1="23.9737" x2="420.1467" y2="-279.3042" gradientTransform="matrix(1 0 0 -1 0 -28)">
		<stop  offset="0" style="stop-color:#C7C678"/>
		<stop  offset="0.52" style="stop-color:#DB6DAA"/>
		<stop  offset="1" style="stop-color:#775091"/>
	</linearGradient>
	<path style="fill-rule:evenodd;clip-rule:evenodd;fill:url(#SVGID_00000124874557792109540650000003218222737536346770_);" d="
		M452.3,51.7c-15.8-36-86.4-33.9-62.2,56.7c10,37.5,15.3,63.8,13.1,79.6L449,93.6C456.6,78.1,456.7,63.7,452.3,51.7L452.3,51.7
		L452.3,51.7z"/>
	
		<linearGradient id="SVGID_00000096751186235345890210000009239690354665248667_" gradientUnits="userSpaceOnUse" x1="423.203" y1="-72.2198" x2="423.203" y2="-250.7073" gradientTransform="matrix(1 0 0 -1 0 -28)">
		<stop  offset="0" style="stop-color:#C7C678"/>
		<stop  offset="0.52" style="stop-color:#DB6DAA"/>
		<stop  offset="1" style="stop-color:#775091"/>
	</linearGradient>
	
		<path style="opacity:0.3;fill-rule:evenodd;clip-rule:evenodd;fill:url(#SVGID_00000096751186235345890210000009239690354665248667_);enable-background:new    ;" d="
		M401.4,64.7c3.6,25.6,25.3,35.8,17.1,69.2l21.7-44.6c5.1-10.7,7.1-22.5,3.1-33.9C433,33,396.6,32.8,401.4,64.7L401.4,64.7
		L401.4,64.7z"/>
	
		<linearGradient id="SVGID_00000180334657497001232440000004635541538414293937_" gradientUnits="userSpaceOnUse" x1="57.7416" y1="-210.596" x2="57.7416" y2="-163.1583" gradientTransform="matrix(1 0 0 -1 0 -28)">
		<stop  offset="0" style="stop-color:#3C98D4"/>
		<stop  offset="0.48" style="stop-color:#4DC0B3"/>
		<stop  offset="1" style="stop-color:#8FD0B6"/>
	</linearGradient>
	<path style="fill-rule:evenodd;clip-rule:evenodd;fill:url(#SVGID_00000180334657497001232440000004635541538414293937_);" d="
		M57.8,177.3c10.4,0,18.9-8.6,18.9-19s-8.5-18.9-18.9-18.9s-19,8.5-19,18.9S47.3,177.3,57.8,177.3L57.8,177.3z"/>
	
		<linearGradient id="SVGID_00000054980953539910417950000015853541978811541950_" gradientUnits="userSpaceOnUse" x1="33.4254" y1="-170.3232" x2="33.4254" y2="-133.8977" gradientTransform="matrix(1 0 0 -1 0 -28)">
		<stop  offset="0" style="stop-color:#3C98D4"/>
		<stop  offset="0.48" style="stop-color:#4DC0B3"/>
		<stop  offset="1" style="stop-color:#8FD0B6"/>
	</linearGradient>
	<path style="fill-rule:evenodd;clip-rule:evenodd;fill:url(#SVGID_00000054980953539910417950000015853541978811541950_);" d="
		M33.5,133.2c6.7,0,12.1-5.4,12.1-12.1c0-6.7-5.4-12.2-12.1-12.2s-12.2,5.4-12.2,12.2C21.3,127.9,26.7,133.2,33.5,133.2L33.5,133.2
		L33.5,133.2z"/>
</g>
</svg>
